<svg width="53" height="66" viewBox="0 0 53 66" fill="none" xmlns="http://www.w3.org/2000/svg">
<g filter="url(#filter0_i_77_20)">
<path d="M43.6563 12.3979L15.2804 52.9267L15.3008 52.8597C14.8289 53.4477 14.2794 53.8901 13.6524 54.1868C13.0835 54.4526 12.4643 54.4834 11.7947 54.2794C11.4376 54.1705 11.0941 54.0171 10.7642 53.819C10.4653 53.6791 10.1509 53.5101 9.82099 53.312L9.88795 53.3324C7.58831 51.7536 7.08616 50.0394 8.38149 48.19L37.7885 6.43874C38.2294 5.79251 38.7924 5.3055 39.4778 4.97769C40.2077 4.66349 40.9657 4.57737 41.7518 4.71933C42.5515 4.81666 43.3153 4.95182 44.0431 5.12483C44.7846 5.25319 45.3562 5.37859 45.7579 5.50102C46.1597 5.62344 46.7041 5.83812 47.3911 6.14504C48.0918 6.40732 48.8079 6.69873 49.5396 7.01926C50.1374 7.29898 50.638 7.81742 51.0415 8.57457C51.4896 9.34534 51.7815 10.0685 51.9171 10.744C52.0773 19.1839 52.2394 27.6975 52.4034 36.2849C52.6256 44.8412 52.8168 53.3393 52.977 61.7792C52.9762 64.0231 51.6035 65.1659 48.8588 65.2077C48.4745 65.1881 48.1193 65.1531 47.7932 65.1025C47.4981 65.1102 47.172 65.0596 46.8149 64.9508C46.19 64.7603 45.6708 64.3826 45.2576 63.8176C44.9026 63.2216 44.7155 62.5548 44.6963 61.8171L44.6759 61.8841L43.6563 12.3979ZM39.374 44.4621C38.9387 45.8906 38.0513 46.9617 36.7117 47.6756C35.4303 48.3584 34.0754 48.4822 32.6469 48.0469C31.2185 47.6116 30.1628 46.7533 29.48 45.4719C28.8108 44.146 28.6938 42.7687 29.1291 41.3402C29.5644 39.9118 30.4227 38.8561 31.704 38.1733C32.999 37.4458 34.3607 37.2997 35.7892 37.735C37.2177 38.1703 38.2665 39.051 38.9357 40.3769C39.6632 41.6719 39.8093 43.0336 39.374 44.4621Z" fill="#95A3BE" fill-opacity="0.8"/>
<path d="M5.90279 8.71692C4.03699 8.66015 3.09213 7.27078 3.06823 4.54879C3.14932 1.88336 4.17608 0.580645 6.1485 0.640654L41.2523 1.70865C43.0114 1.76217 44.3619 2.09673 45.3036 2.71232C46.2469 3.2746 46.7573 4.03714 46.8348 4.99994C46.8605 5.90781 46.8071 6.78659 46.6745 7.63628C46.5969 8.43429 46.3916 9.04166 46.0588 9.4584L13.0961 56.3977L42.0428 57.2784C44.0152 57.3384 44.9616 58.6745 44.8822 61.2866C44.9045 64.0619 43.8761 65.4179 41.797 65.3547L5.97361 64.2648C2.45524 64.1577 0.59522 63.034 0.393551 60.8935C0.314506 59.984 0.339644 59.1577 0.468968 58.4147C0.599913 57.6183 0.831799 57.0117 1.16463 56.595C2.16959 55.1315 3.20284 53.6156 4.26436 52.0471C5.37919 50.4803 6.6055 48.7568 7.9433 46.8766C9.28109 44.9964 10.7595 42.8804 12.3784 40.5286C14.0506 38.1783 15.9458 35.5147 18.064 32.5378C20.1838 29.5075 22.5549 26.1114 25.1771 22.3494C27.8527 18.589 30.8636 14.3319 34.2097 9.57813L5.90279 8.71692Z" fill="#6189B8" fill-opacity="0.7"/>
</g>
<defs>
<filter id="filter0_i_77_20" x="0.348572" y="0.638672" width="52.6284" height="68.7181" filterUnits="userSpaceOnUse" color-interpolation-filters="sRGB">
<feFlood flood-opacity="0" result="BackgroundImageFix"/>
<feBlend mode="normal" in="SourceGraphic" in2="BackgroundImageFix" result="shape"/>
<feColorMatrix in="SourceAlpha" type="matrix" values="0 0 0 0 0 0 0 0 0 0 0 0 0 0 0 0 0 0 127 0" result="hardAlpha"/>
<feOffset dy="4"/>
<feGaussianBlur stdDeviation="2"/>
<feComposite in2="hardAlpha" operator="arithmetic" k2="-1" k3="1"/>
<feColorMatrix type="matrix" values="0 0 0 0 0 0 0 0 0 0 0 0 0 0 0 0 0 0 0.25 0"/>
<feBlend mode="normal" in2="shape" result="effect1_innerShadow_77_20"/>
</filter>
</defs>
</svg>
