<svg width="89" height="107" viewBox="0 0 89 107" fill="none" xmlns="http://www.w3.org/2000/svg">
<g filter="url(#filter0_i_76_18)">
<path d="M45.6563 27.398L17.2804 67.9267L17.3008 67.8597C16.8289 68.4477 16.2795 68.8901 15.6524 69.1869C15.0836 69.4526 14.4644 69.4835 13.7948 69.2794C13.4376 69.1706 13.0941 69.0171 12.7642 68.819C12.4653 68.6792 12.1509 68.5102 11.821 68.3121L11.888 68.3325C9.58833 66.7536 9.08617 65.0395 10.3815 63.1901L39.7885 21.4388C40.2294 20.7926 40.7925 20.3055 41.4778 19.9777C42.2077 19.6635 42.9657 19.5774 43.7518 19.7194C44.5515 19.8167 45.3153 19.9519 46.0431 20.1249C46.7846 20.2532 47.3562 20.3786 47.758 20.5011C48.1597 20.6235 48.7041 20.8382 49.3912 21.1451C50.0918 21.4074 50.8079 21.6988 51.5396 22.0193C52.1374 22.299 52.638 22.8175 53.0415 23.5746C53.4896 24.3454 53.7815 25.0685 53.9171 25.7441C54.0773 34.1839 54.2394 42.6976 54.4034 51.2849C54.6256 59.8413 54.8168 68.3394 54.977 76.7793C54.9762 79.0231 53.6035 80.166 50.8588 80.2077C50.4745 80.1882 50.1193 80.1531 49.7932 80.1025C49.4981 80.1102 49.1721 80.0596 48.8149 79.9508C48.19 79.7604 47.6709 79.3827 47.2576 78.8177C46.9026 78.2216 46.7155 77.5548 46.6964 76.8172L46.6759 76.8841L45.6563 27.398ZM41.374 59.4621C40.9387 60.8906 40.0513 61.9618 38.7117 62.6756C37.4304 63.3585 36.0755 63.4822 34.647 63.0469C33.2185 62.6117 32.1628 61.7533 31.48 60.472C30.8108 59.146 30.6938 57.7688 31.1291 56.3403C31.5644 54.9118 32.4227 53.8562 33.7041 53.1733C34.999 52.4459 36.3607 52.2998 37.7892 52.7351C39.2177 53.1704 40.2665 54.051 40.9358 55.377C41.6632 56.6719 41.8093 58.0336 41.374 59.4621Z" fill="#95A3BE" fill-opacity="0.8"/>
</g>
<g filter="url(#filter1_i_76_18)">
<path d="M7.90281 23.717C6.037 23.6602 5.09215 22.2708 5.06825 19.5488C5.14934 16.8834 6.1761 15.5807 8.14852 15.6407L43.2523 16.7087C45.0115 16.7622 46.3619 17.0968 47.3036 17.7124C48.247 18.2746 48.7573 19.0372 48.8348 20C48.8605 20.9079 48.8071 21.7866 48.6745 22.6363C48.5969 23.4343 48.3917 24.0417 48.0588 24.4584L15.0962 71.3978L44.0428 72.2784C46.0152 72.3385 46.9617 73.6745 46.8822 76.2866C46.9045 79.0619 45.8761 80.418 43.7971 80.3547L7.97363 79.2648C4.45526 79.1578 2.59524 78.034 2.39357 75.8936C2.31452 74.9841 2.33966 74.1578 2.46899 73.4147C2.59993 72.6183 2.83182 72.0118 3.16464 71.595C4.16961 70.1316 5.20286 68.6156 6.26438 67.0472C7.37921 65.4804 8.60552 63.7569 9.94331 61.8767C11.2811 59.9965 12.7595 57.8805 14.3784 55.5286C16.0507 53.1784 17.9459 50.5148 20.064 47.5378C22.1838 44.5075 24.5549 41.1114 27.1772 37.3494C29.8528 33.589 32.8636 29.332 36.2097 24.5782L7.90281 23.717Z" fill="#6189B8" fill-opacity="0.7"/>
</g>
<defs>
<filter id="filter0_i_76_18" x="7.96921" y="13.4004" width="63.0239" height="72.2848" filterUnits="userSpaceOnUse" color-interpolation-filters="sRGB">
<feFlood flood-opacity="0" result="BackgroundImageFix"/>
<feBlend mode="normal" in="SourceGraphic" in2="BackgroundImageFix" result="shape"/>
<feColorMatrix in="SourceAlpha" type="matrix" values="0 0 0 0 0 0 0 0 0 0 0 0 0 0 0 0 0 0 127 0" result="hardAlpha"/>
<feOffset dy="4"/>
<feGaussianBlur stdDeviation="2"/>
<feComposite in2="hardAlpha" operator="arithmetic" k2="-1" k3="1"/>
<feColorMatrix type="matrix" values="0 0 0 0 0 0 0 0 0 0 0 0 0 0 0 0 0 0 0.25 0"/>
<feBlend mode="normal" in2="shape" result="effect1_innerShadow_76_18"/>
</filter>
<filter id="filter1_i_76_18" x="2.13633" y="15.5166" width="46.8733" height="68.9379" filterUnits="userSpaceOnUse" color-interpolation-filters="sRGB">
<feFlood flood-opacity="0" result="BackgroundImageFix"/>
<feBlend mode="normal" in="SourceGraphic" in2="BackgroundImageFix" result="shape"/>
<feColorMatrix in="SourceAlpha" type="matrix" values="0 0 0 0 0 0 0 0 0 0 0 0 0 0 0 0 0 0 127 0" result="hardAlpha"/>
<feOffset dy="4"/>
<feGaussianBlur stdDeviation="2"/>
<feComposite in2="hardAlpha" operator="arithmetic" k2="-1" k3="1"/>
<feColorMatrix type="matrix" values="0 0 0 0 0 0 0 0 0 0 0 0 0 0 0 0 0 0 0.25 0"/>
<feBlend mode="normal" in2="shape" result="effect1_innerShadow_76_18"/>
</filter>
</defs>
</svg>
